# xmcd
# Copyright (C) 1995-1998 Ti Kan
#
# Track frame offsets:
#       150
#       19876
#       44026
#       69751
#       98698
#       126975
#       152251
#       175350
#
# Disc length: 2738 seconds
#
# Revision: 0
# Processed by: cddbd v1.5.2PL0 Copyright (c) Steve Scherf et al.
# Submitted via: CD-Transfer v1.0
#
DISCID=610ab008
DTITLE=Jazz Ex Tempore Orchestra - 
DYEAR=16
DGENRE=
TTITLE0=Samba De Eslavonia (I)
TTITLE1=Ivan Klalar (I)
TTITLE2=Klinèek Stoji Pod Oblokom (I)
TTITLE3=Dalmatian Jig (I)
TTITLE4=Maybe Not Fast (I)
TTITLE5=Vehni, Vehni, Fijolica (I)
TTITLE6=Mista Dance (I)
TTITLE7=Old Things (I)
EXTD=
EXTT0=
EXTT1=
EXTT2=
EXTT3=
EXTT4=
EXTT5=
EXTT6=
EXTT7=
PLAYORDER=
